<svg id="Capa_1" enable-background="new 0 0 512 512" height="512" viewBox="0 0 512 512" width="512" xmlns="http://www.w3.org/2000/svg" xmlns:xlink="http://www.w3.org/1999/xlink"><radialGradient id="SVGID_1_" cx="400.788" cy="347.441" fx="469.743" fy="283.687" gradientTransform="matrix(.905 -.425 .425 .905 -90.019 166.437)" gradientUnits="userSpaceOnUse" r="95.578"><stop offset=".0338" stop-color="#fcf3b3"/><stop offset=".1424" stop-color="#fcf1a8"/><stop offset=".3326" stop-color="#faec8b"/><stop offset=".5803" stop-color="#f8e55c"/><stop offset=".7097" stop-color="#f7e041"/><stop offset=".9517" stop-color="#ffc538"/></radialGradient><radialGradient id="SVGID_2_" cx="240.644" cy="278.24" fx="360.774" fy="167.171" gradientUnits="userSpaceOnUse" r="166.511"><stop offset=".0483" stop-color="#79d3fe"/><stop offset=".1969" stop-color="#6ecafd"/><stop offset=".4562" stop-color="#51b3fa"/><stop offset=".7097" stop-color="#2f97f7"/><stop offset=".9517" stop-color="#0072bc"/></radialGradient><radialGradient id="SVGID_3_" cx="62.869" cy="412.184" fx="131.824" fy="348.43" gradientTransform="matrix(.958 -.287 .287 .958 -87.061 67.531)" gradientUnits="userSpaceOnUse" r="95.578"><stop offset=".1144" stop-color="#ff7a85"/><stop offset=".2376" stop-color="#ff6f7b"/><stop offset=".4526" stop-color="#ff5261"/><stop offset=".5249" stop-color="#ff4757"/><stop offset=".8821" stop-color="#ab2c37"/></radialGradient><radialGradient id="SVGID_4_" cx="240.644" cy="67.705" fx="309.599" fy="3.951" gradientUnits="userSpaceOnUse" r="95.578"><stop offset=".1144" stop-color="#9bf0df"/><stop offset=".168" stop-color="#90eedb"/><stop offset=".2619" stop-color="#73ead2"/><stop offset=".385" stop-color="#44e3c2"/><stop offset=".5249" stop-color="#06daae"/><stop offset=".8821" stop-color="#2f878a"/></radialGradient><g><circle cx="420.427" cy="310.629" fill="url(#SVGID_1_)" r="67.705"/><g><path d="m405.689 291.331c4.007 11.364 1.14 22.657-6.006 30.026-3.273 3.376-9.424 6.745-16.565 5.234l-.003.018-176.401-42.915 8.981-48.385 174.662 42.482-.004.025c6.22 2.18 12.889 6.573 15.336 13.515z" fill="#565d68"/></g><circle cx="240.644" cy="278.24" fill="url(#SVGID_2_)" r="117.952"/><g><path d="m202.702 359.043c-3.405-11.352-14.263-22.47-24.252-24.832-4.576-1.082-8.158-.121-10.389 2.31l-.012-.014-125.537 131.145 33.621 35.936 124.305-129.845-.016-.019c3.237-2.721 4.29-7.983 2.28-14.681z" fill="#565d68"/></g><path d="m263.802 81.279-46.316 15.344v81.566l.009-.001c.042 3.033 1.887 5.925 5.638 8.09 8.374 4.835 23.001 4.229 32.67-1.354 5.228-3.019 7.912-6.872 7.974-10.542l.025-.002z" fill="#565d68"/><circle cx="91.575" cy="444.277" fill="url(#SVGID_3_)" r="67.705"/><circle cx="240.644" cy="67.705" fill="url(#SVGID_4_)" r="67.705"/></g></svg>